<?xml version="1.0" encoding="utf-8"?>
<!-- Generator: Adobe Illustrator 19.0.0, SVG Export Plug-In . SVG Version: 6.00 Build 0)  -->
<svg version="1.1" id="layer" xmlns="http://www.w3.org/2000/svg" xmlns:xlink="http://www.w3.org/1999/xlink" x="0px" y="0px"
	 viewBox="-153 -46 652 652" style="enable-background:new -153 -46 652 652;" xml:space="preserve">
<style type="text/css">
	.st0{fill:#32689B;}
	.st1{fill:#FFCC33;}
</style>
<path class="st0" d="M28.9,222.5v40.8l-41.1-27.5l82.9-55H-33l-93.2,62.1l93.2,62.1H91.2v-31l46.7,31h108.6L153.4,243l11.2-6.9
	l103.3,69H308l0-124h-61.6v31.1L200,181.1h-62.9l-45.9,31.1v-31.3L28.9,222.5z"/>
<path class="st1" d="M328.7,180.9l93.2,62.1l-93.2,62.1h51.9l93.2-62.1l-93.2-62.1C380.6,180.9,328.7,180.9,328.7,180.9z"/>
<path class="st0" d="M66.6,338.5l-15.2,40.9h9l2.9-8.7h17.3l2.9,8.7h9.1l-15.2-40.9H66.6z M65.4,364.3l6.5-19.3l6.6,19.3H65.4z
	 M18.3,369.3L3.5,338.5H-8.2v40.9h7.7v-31.2l14.9,31.2H26v-40.9h-7.7V369.3z M-72,344c2.8,0,4.8,0.6,6.1,1.8c1.3,1.2,1.9,3.1,2,5.8
	h8.3c0-4.6-1.4-8-4.1-10.4c-2.8-2.4-6.8-3.5-12.2-3.5c-6.2,0-11.1,1.9-14.8,5.7c-3.7,3.8-5.5,9-5.5,15.5c0,6.9,1.8,12.2,5.5,15.8
	c3.7,3.6,9,5.4,16,5.4c5,0,9.9-0.8,14.7-2.3v-20.4h-16.3v6.3h7.9v9.1c-2.3,0.6-4.6,0.9-7,1c-4.1,0-7.2-1.3-9.3-3.8
	c-2.1-2.5-3.2-6.2-3.2-11.1c0-4.8,1-8.5,3.1-11.1C-78.7,345.3-75.7,344-72,344L-72,344z M-16.6,338.5h-9.2l-12.3,18.1h0v-18.1h-8.4
	v40.9h8.4v-20.9l13.5,20.9h9.9l-14.9-22.2L-16.6,338.5z M123.7,365.2c0,2.8-0.7,5-2.2,6.4c-1.5,1.5-3.6,2.2-6.4,2.2
	c-2.8,0-5-0.7-6.4-2.2c-1.5-1.5-2.2-3.6-2.2-6.4v-26.7H98v24.6c0,5.6,1.5,9.8,4.3,12.7c2.9,2.9,7.1,4.3,12.7,4.3
	c5.6,0,9.8-1.4,12.7-4.3c2.9-2.9,4.3-7.1,4.3-12.7v-24.6h-8.4L123.7,365.2L123.7,365.2z M138.7,344.8h12.5v34.5h8.4v-34.5H172v-6.3
	h-33.3L138.7,344.8z M196.4,337.7c-6.2,0-10.9,1.8-14.1,5.4c-3.2,3.6-4.8,8.9-4.8,15.8c0,6.9,1.6,12.2,4.8,15.8h0
	c3.2,3.6,7.9,5.4,14.1,5.4c6.2,0,10.9-1.8,14.1-5.4c3.2-3.6,4.8-8.9,4.8-15.8c0-6.9-1.6-12.2-4.8-15.8
	C207.2,339.5,202.5,337.7,196.4,337.7z M204.2,370c-1.8,2.5-4.4,3.8-7.9,3.8c-3.4,0-6.1-1.3-7.9-3.8c-1.8-2.5-2.7-6.2-2.7-11.1
	c0-4.9,0.9-8.6,2.7-11.1c1.8-2.5,4.4-3.8,7.9-3.8c3.5,0,6.1,1.3,7.9,3.8c1.8,2.5,2.7,6.3,2.7,11.1C206.9,363.8,206,367.5,204.2,370z
	 M245.6,370.9L245.6,370.9l-8.5-32.4h-14v40.9h7.7v-37.5l10.3,37.5h8.9l10.3-37.8v37.8h7.7v-40.9h-14L245.6,370.9z M294.9,337.7
	c-6.2,0-10.9,1.8-14.1,5.4c-3.2,3.6-4.8,8.9-4.8,15.8c0,6.9,1.6,12.2,4.8,15.8c3.2,3.6,7.9,5.4,14.1,5.4c6.2,0,10.9-1.8,14.1-5.4
	c3.2-3.6,4.8-8.9,4.8-15.8c0-6.9-1.6-12.2-4.8-15.8C305.8,339.5,301.1,337.7,294.9,337.7z M302.8,370c-1.8,2.5-4.4,3.8-7.9,3.8
	c-3.4,0-6.1-1.3-7.9-3.8c-1.8-2.5-2.7-6.2-2.7-11.1c0-4.9,0.9-8.6,2.7-11.1c1.8-2.5,4.4-3.8,7.9-3.8c3.5,0,6.1,1.3,7.9,3.8
	c1.8,2.5,2.7,6.3,2.7,11.1C305.5,363.8,304.6,367.5,302.8,370z M319.3,344.8h12.5v34.5h8.4v-34.5h12.5v-6.3h-33.3V344.8z M426.3,373
	v-11.7h17.4v-6.3h-17.4v-10.1h18.5v-6.3h-26.9v40.9h27.5V373H426.3z M358.7,338.5h8.4v40.9h-8.4V338.5z M392.7,370.2L392.7,370.2
	l-11.1-31.7h-9.2l15.4,40.9h8.9l15.5-40.9h-8.3L392.7,370.2z"/>
</svg>
